<svg preserveAspectRatio="none" overflow="visible" style="display: block;" width="52" height="52" viewBox="0 0 52 52" fill="none" xmlns="http://www.w3.org/2000/svg">
<g id="Group 1000002569">
<circle id="Ellipse 2" opacity="0.5" cx="26" cy="26" r="26" fill="#CDF88C"/>
<g id="Windmill">
<path id="Vector" d="M37.9961 38.0002H32.8636L32.0761 32.4852L32.4811 32.724C32.7074 32.8573 32.9579 32.9448 33.218 32.9813C33.4782 33.0179 33.743 33.0028 33.9973 32.937C34.2516 32.8712 34.4905 32.7559 34.7003 32.5977C34.91 32.4396 35.0866 32.2416 35.2198 32.0152L36.7198 29.4727C36.8532 29.2464 36.9406 28.996 36.9772 28.7358C37.0137 28.4757 36.9987 28.2109 36.9328 27.9565C36.867 27.7022 36.7517 27.4633 36.5936 27.2536C36.4354 27.0438 36.2375 26.8672 36.0111 26.734L31.6361 24.1577L36.7223 15.5165C36.8557 15.2901 36.9431 15.0397 36.9797 14.7796C37.0162 14.5194 37.0012 14.2546 36.9353 14.0003C36.8695 13.746 36.7542 13.5071 36.5961 13.2973C36.4379 13.0876 36.24 12.911 36.0136 12.7777L33.4711 11.2777C33.2447 11.1444 32.9943 11.057 32.7342 11.0204C32.474 10.9839 32.2092 10.9989 31.9549 11.0648C31.7006 11.1306 31.4617 11.2458 31.2519 11.404C31.0422 11.5622 30.8656 11.7601 30.7323 11.9865L28.1561 16.3615L19.5111 11.2777C19.2847 11.1444 19.0343 11.057 18.7742 11.0204C18.514 10.9839 18.2492 10.9989 17.9949 11.0648C17.7406 11.1306 17.5017 11.2458 17.2919 11.404C17.0822 11.5622 16.9056 11.7601 16.7723 11.9865L15.2723 14.5277C15.1388 14.7541 15.0512 15.0047 15.0146 15.2649C14.9779 15.5252 14.9929 15.7902 15.0587 16.0447C15.1246 16.2991 15.2399 16.5381 15.3982 16.748C15.5564 16.9579 15.7545 17.1345 15.9811 17.2677L20.3561 19.844L15.2723 28.4852C15.139 28.7116 15.0516 28.962 15.015 29.2222C14.9785 29.4823 14.9935 29.7471 15.0594 30.0014C15.1252 30.2558 15.2404 30.4946 15.3986 30.7044C15.5568 30.9142 15.7547 31.0907 15.9811 31.224L18.5236 32.724C18.9207 32.962 19.3896 33.0506 19.8461 32.974L19.1286 38.0002H13.9961C13.7309 38.0002 13.4765 38.1056 13.289 38.2931C13.1015 38.4807 12.9961 38.735 12.9961 39.0002C12.9961 39.2655 13.1015 39.5198 13.289 39.7074C13.4765 39.8949 13.7309 40.0002 13.9961 40.0002H37.9961C38.2613 40.0002 38.5157 39.8949 38.7032 39.7074C38.8907 39.5198 38.9961 39.2655 38.9961 39.0002C38.9961 38.735 38.8907 38.4807 38.7032 38.2931C38.5157 38.1056 38.2613 38.0002 37.9961 38.0002ZM34.9961 28.4577L33.4961 31.0002L24.8548 25.914L26.3548 23.3702L34.9961 28.4577ZM32.4536 13.0002L34.9961 14.5002L29.9098 23.1427L27.3711 21.6465L32.4536 13.0002ZM16.9961 15.544L18.4961 13.0002L27.1386 18.0877L25.6386 20.6315L16.9961 15.544ZM19.5386 31.0002L16.9961 29.5002L22.0823 20.8577L24.6273 22.3577L19.5386 31.0002ZM21.1486 38.0002L22.2461 30.3502L23.8423 27.6377L29.8711 31.1877L30.8448 38.0002H21.1486Z" fill="#17494D"/>
</g>
</g>
</svg>
