<svg preserveAspectRatio="none" overflow="visible" style="display: block;" width="386" height="58" viewBox="0 0 386 58" fill="none" xmlns="http://www.w3.org/2000/svg">
<g id="6SenseHQ">
<path d="M22.8182 56.5873C18.3226 56.5873 14.3496 55.4623 10.8994 53.2124C7.50153 50.9626 4.83548 47.8232 2.90129 43.7943C0.967096 39.7654 0 35.0825 0 29.7456C0 23.7808 1.07165 18.5747 3.21494 14.1272C5.35824 9.67975 8.33794 6.22643 12.154 3.76725C16.0224 1.25575 20.5181 0 25.6411 0C28.3072 0 30.9732 0.418583 33.6393 1.25575C36.3053 2.09292 38.5532 3.27018 40.3828 4.78755L35.5212 11.3018C33.9529 10.1507 32.3062 9.31348 30.5812 8.79026C28.8561 8.2147 26.9741 7.92693 24.9354 7.92693C21.5375 7.92693 18.6362 8.79026 16.2315 10.5169C13.8791 12.1912 12.0495 14.6504 10.7426 17.8945C9.488 21.1385 8.83455 25.0627 8.78228 29.6671C10.6642 27.1033 12.912 25.115 15.5258 23.7023C18.1919 22.2896 20.9625 21.5832 23.8376 21.5832C27.4446 21.5832 30.6334 22.3157 33.404 23.7808C36.1746 25.1935 38.3441 27.1818 39.9123 29.7456C41.4806 32.2571 42.2647 35.161 42.2647 38.4574C42.2647 41.9107 41.4022 45.0239 39.6771 47.797C38.0043 50.5178 35.7041 52.6631 32.7767 54.2327C29.8493 55.8024 26.5298 56.5873 22.8182 56.5873ZM22.4262 28.5683C19.8647 28.5683 17.4339 29.1439 15.1337 30.295C12.8859 31.4461 10.8994 33.0158 9.17434 35.0041C9.64482 37.8295 10.4812 40.2887 11.6836 42.3816C12.9382 44.4745 14.4803 46.1227 16.3099 47.3261C18.1396 48.4772 20.2045 49.0528 22.5046 49.0528C24.5956 49.0528 26.4775 48.608 28.1503 47.7185C29.8232 46.7767 31.13 45.521 32.071 43.9513C33.0642 42.3816 33.5608 40.6026 33.5608 38.6143C33.5608 36.6784 33.0904 34.9517 32.1494 33.4344C31.2085 31.917 29.9016 30.7397 28.2288 29.9026C26.6082 29.0131 24.674 28.5683 22.4262 28.5683Z" fill="url(#paint0_linear_0_4)" fill-opacity="0.08" style="mix-blend-mode:plus-darker"/>
<path d="M68.8162 56.5873C64.425 56.5873 60.1384 55.7501 55.9564 54.0758C51.8266 52.3491 48.1673 49.9423 44.9785 46.8552L50.7027 39.9486C53.787 42.8263 56.8189 44.9454 59.7986 46.3058C62.8306 47.6662 66.0456 48.3464 69.4435 48.3464C71.9004 48.3464 74.0437 48.0063 75.8733 47.3261C77.7553 46.6459 79.1928 45.7041 80.1861 44.5007C81.2316 43.2449 81.7543 41.806 81.7543 40.184C81.7543 37.9865 80.9702 36.3121 79.4019 35.161C77.886 33.9576 75.2983 33.0681 71.639 32.4926L61.6806 30.7659C56.8189 29.9287 53.1597 28.3067 50.7027 25.8999C48.2458 23.4407 47.0173 20.249 47.0173 16.3248C47.0173 13.0284 47.8537 10.1768 49.5265 7.76996C51.2516 5.31078 53.6824 3.42715 56.8189 2.11908C59.9555 0.811005 63.6409 0.156967 67.8752 0.156967C71.8481 0.156967 75.7949 0.811005 79.7156 2.11908C83.6363 3.42715 87.1387 5.28462 90.223 7.69147L84.8909 14.9905C79.0883 10.5431 73.2073 8.31935 67.2479 8.31935C65.0523 8.31935 63.1181 8.63329 61.4453 9.26116C59.7725 9.83672 58.4656 10.6739 57.5247 11.7727C56.636 12.8191 56.1916 14.0749 56.1916 15.5399C56.1916 17.5282 56.8712 19.0456 58.2304 20.092C59.6418 21.1385 61.9158 21.9233 65.0523 22.4465L74.6187 24.0162C80.3168 24.9581 84.5249 26.6847 87.2433 29.1962C89.9616 31.7077 91.3207 35.1087 91.3207 39.3992C91.3207 42.8525 90.3798 45.8872 88.4979 48.5034C86.6682 51.0672 84.0545 53.0555 80.6565 54.4682C77.3109 55.8809 73.3641 56.5873 68.8162 56.5873Z" fill="url(#paint1_linear_0_4)" fill-opacity="0.08" style="mix-blend-mode:plus-darker"/>
<path d="M118.047 56.5088C114.022 56.5088 110.388 55.5931 107.147 53.7618C103.959 51.9305 101.397 49.4452 99.4629 46.3058C97.5809 43.1141 96.64 39.5562 96.64 35.6319C96.64 31.7077 97.5548 28.1759 99.3844 25.0365C101.214 21.8972 103.671 19.4118 106.755 17.5805C109.84 15.6969 113.29 14.7551 117.106 14.7551C120.922 14.7551 124.294 15.6969 127.221 17.5805C130.201 19.4641 132.553 22.028 134.278 25.272C136.003 28.4637 136.866 32.1001 136.866 36.1813V38.6143H105.971C106.389 40.6026 107.173 42.3554 108.324 43.8728C109.474 45.3902 110.937 46.5936 112.715 47.4831C114.492 48.3203 116.4 48.7388 118.439 48.7388C120.321 48.7388 122.098 48.4511 123.771 47.8755C125.496 47.3 126.934 46.4628 128.084 45.364L134.043 51.0149C131.638 52.8985 129.155 54.2851 126.594 55.1746C124.032 56.0641 121.183 56.5088 118.047 56.5088ZM105.893 31.9432H127.77C127.404 30.0595 126.698 28.4114 125.653 26.9986C124.607 25.5859 123.327 24.4871 121.811 23.7023C120.347 22.8651 118.726 22.4465 116.949 22.4465C115.119 22.4465 113.42 22.839 111.852 23.6238C110.336 24.4087 109.055 25.5074 108.01 26.9202C107.017 28.3329 106.311 30.0072 105.893 31.9432Z" fill="url(#paint2_linear_0_4)" fill-opacity="0.08" style="mix-blend-mode:plus-darker"/>
<path d="M143.931 55.8024V15.3829H153.105V19.1502C156.19 16.1155 160.11 14.5981 164.867 14.5981C167.952 14.5981 170.67 15.2783 173.022 16.6387C175.427 17.9991 177.309 19.8827 178.668 22.2896C180.027 24.6441 180.707 27.4172 180.707 30.6089V55.8024H171.533V32.0216C171.533 29.0916 170.696 26.7894 169.023 25.115C167.351 23.4407 165.103 22.6035 162.28 22.6035C160.293 22.6035 158.516 23.0221 156.948 23.8593C155.432 24.6441 154.151 25.7691 153.105 27.2341V55.8024H143.931Z" fill="url(#paint3_linear_0_4)" fill-opacity="0.08" style="mix-blend-mode:plus-darker"/>
<path d="M203.768 56.5873C200.161 56.5873 196.816 56.0902 193.731 55.0961C190.647 54.1019 187.981 52.6631 185.733 50.7794L190.438 44.6576C192.686 46.332 194.882 47.5877 197.025 48.4249C199.22 49.2097 201.416 49.6022 203.612 49.6022C206.225 49.6022 208.342 49.1313 209.963 48.1894C211.584 47.1953 212.394 45.9134 212.394 44.3437C212.394 43.088 211.923 42.0938 210.982 41.3613C210.041 40.6288 208.578 40.1055 206.591 39.7916L199.064 38.6928C195.038 38.1173 192.006 36.8615 189.968 34.9256C187.929 32.9373 186.91 30.3473 186.91 27.1556C186.91 24.6441 187.563 22.4727 188.87 20.6414C190.229 18.7578 192.137 17.2927 194.594 16.2463C197.051 15.1998 199.926 14.6766 203.219 14.6766C206.147 14.6766 208.97 15.0952 211.688 15.9323C214.459 16.7695 217.072 18.0514 219.529 19.7781L215.06 25.8214C212.812 24.4087 210.669 23.3884 208.63 22.7605C206.591 22.0803 204.526 21.7402 202.435 21.7402C200.24 21.7402 198.462 22.1849 197.103 23.0744C195.796 23.9116 195.143 25.0627 195.143 26.5277C195.143 27.8358 195.613 28.8561 196.554 29.5886C197.495 30.2688 199.064 30.7659 201.259 31.0798L208.708 32.1786C212.734 32.7018 215.792 33.9576 217.883 35.9459C219.974 37.8818 221.019 40.4195 221.019 43.5589C221.019 46.0704 220.261 48.3203 218.745 50.3085C217.229 52.2445 215.164 53.788 212.551 54.9391C209.989 56.0379 207.062 56.5873 203.768 56.5873Z" fill="url(#paint4_linear_0_4)" fill-opacity="0.08" style="mix-blend-mode:plus-darker"/>
<path d="M246.617 56.5088C242.592 56.5088 238.958 55.5931 235.717 53.7618C232.529 51.9305 229.967 49.4452 228.033 46.3058C226.151 43.1141 225.21 39.5562 225.21 35.6319C225.21 31.7077 226.125 28.1759 227.955 25.0365C229.784 21.8972 232.241 19.4118 235.325 17.5805C238.41 15.6969 241.86 14.7551 245.676 14.7551C249.492 14.7551 252.864 15.6969 255.791 17.5805C258.771 19.4641 261.123 22.028 262.848 25.272C264.573 28.4637 265.436 32.1001 265.436 36.1813V38.6143H234.541C234.959 40.6026 235.744 42.3554 236.894 43.8728C238.044 45.3902 239.507 46.5936 241.285 47.4831C243.062 48.3203 244.97 48.7388 247.009 48.7388C248.891 48.7388 250.668 48.4511 252.341 47.8755C254.066 47.3 255.504 46.4628 256.654 45.364L262.613 51.0149C260.208 52.8985 257.725 54.2851 255.164 55.1746C252.602 56.0641 249.753 56.5088 246.617 56.5088ZM234.463 31.9432H256.34C255.974 30.0595 255.268 28.4114 254.223 26.9986C253.177 25.5859 251.897 24.4871 250.381 23.7023C248.917 22.8651 247.296 22.4465 245.519 22.4465C243.689 22.4465 241.99 22.839 240.422 23.6238C238.906 24.4087 237.625 25.5074 236.58 26.9202C235.587 28.3329 234.881 30.0072 234.463 31.9432Z" fill="url(#paint5_linear_0_4)" fill-opacity="0.08" style="mix-blend-mode:plus-darker"/>
<path d="M273.364 55.8024V0.863327H283.009V23.7023H310.375V0.863327H320.098V55.8024H310.375V32.571H283.009V55.8024H273.364Z" fill="url(#paint6_linear_0_4)" fill-opacity="0.08" style="mix-blend-mode:plus-darker"/>
<path d="M374.238 58L370.474 53.4479C368.54 54.442 366.449 55.2269 364.201 55.8024C362.006 56.378 359.679 56.6658 357.222 56.6658C353.197 56.6658 349.433 55.9594 345.931 54.5467C342.428 53.0816 339.37 51.0672 336.757 48.5034C334.143 45.8872 332.104 42.8787 330.64 39.4777C329.177 36.0244 328.445 32.3094 328.445 28.3329C328.445 24.3563 329.177 20.6676 330.64 17.2666C332.104 13.8133 334.143 10.8047 336.757 8.24087C339.37 5.62472 342.428 3.61028 345.931 2.19756C349.433 0.732521 353.197 0 357.222 0C361.248 0 364.985 0.732521 368.435 2.19756C371.938 3.61028 374.996 5.62472 377.61 8.24087C380.276 10.8047 382.341 13.8133 383.804 17.2666C385.268 20.6676 386 24.3563 386 28.3329C386 32.3094 385.216 36.0505 383.648 39.5562C382.132 43.0618 380.067 46.0965 377.453 48.6604L383.02 55.4885L374.238 58ZM357.222 47.7185C358.582 47.7185 359.862 47.5877 361.065 47.3261C362.319 47.0122 363.469 46.5674 364.515 45.9919L358.006 38.065L366.789 35.475L371.415 41.1258C372.879 39.4515 374.003 37.5156 374.787 35.318C375.623 33.1204 376.042 30.7921 376.042 28.3329C376.042 25.5598 375.571 22.9959 374.63 20.6414C373.689 18.2869 372.356 16.2463 370.631 14.5196C368.906 12.7406 366.893 11.3802 364.593 10.4384C362.345 9.4443 359.888 8.94723 357.222 8.94723C354.556 8.94723 352.073 9.4443 349.773 10.4384C347.473 11.3802 345.46 12.7406 343.735 14.5196C342.062 16.2463 340.729 18.2869 339.736 20.6414C338.795 22.9959 338.325 25.5598 338.325 28.3329C338.325 31.0537 338.795 33.6175 339.736 36.0244C340.729 38.3789 342.062 40.4456 343.735 42.2246C345.46 43.9513 347.473 45.3117 349.773 46.3058C352.073 47.2476 354.556 47.7185 357.222 47.7185Z" fill="url(#paint7_linear_0_4)" fill-opacity="0.08" style="mix-blend-mode:plus-darker"/>
</g>
<defs>
<linearGradient id="paint0_linear_0_4" x1="193.217" y1="-19.1805" x2="193.217" y2="87.487" gradientUnits="userSpaceOnUse">
<stop offset="0.326923" stop-color="#02A145" stop-opacity="0.8"/>
<stop offset="1" stop-color="#666666" stop-opacity="0"/>
</linearGradient>
<linearGradient id="paint1_linear_0_4" x1="193.217" y1="-19.1805" x2="193.217" y2="87.487" gradientUnits="userSpaceOnUse">
<stop offset="0.326923" stop-color="#02A145" stop-opacity="0.8"/>
<stop offset="1" stop-color="#666666" stop-opacity="0"/>
</linearGradient>
<linearGradient id="paint2_linear_0_4" x1="193.217" y1="-19.1805" x2="193.217" y2="87.487" gradientUnits="userSpaceOnUse">
<stop offset="0.326923" stop-color="#02A145" stop-opacity="0.8"/>
<stop offset="1" stop-color="#666666" stop-opacity="0"/>
</linearGradient>
<linearGradient id="paint3_linear_0_4" x1="193.217" y1="-19.1805" x2="193.217" y2="87.487" gradientUnits="userSpaceOnUse">
<stop offset="0.326923" stop-color="#02A145" stop-opacity="0.8"/>
<stop offset="1" stop-color="#666666" stop-opacity="0"/>
</linearGradient>
<linearGradient id="paint4_linear_0_4" x1="193.217" y1="-19.1805" x2="193.217" y2="87.487" gradientUnits="userSpaceOnUse">
<stop offset="0.326923" stop-color="#02A145" stop-opacity="0.8"/>
<stop offset="1" stop-color="#666666" stop-opacity="0"/>
</linearGradient>
<linearGradient id="paint5_linear_0_4" x1="193.217" y1="-19.1805" x2="193.217" y2="87.487" gradientUnits="userSpaceOnUse">
<stop offset="0.326923" stop-color="#02A145" stop-opacity="0.8"/>
<stop offset="1" stop-color="#666666" stop-opacity="0"/>
</linearGradient>
<linearGradient id="paint6_linear_0_4" x1="193.217" y1="-19.1805" x2="193.217" y2="87.487" gradientUnits="userSpaceOnUse">
<stop offset="0.326923" stop-color="#02A145" stop-opacity="0.8"/>
<stop offset="1" stop-color="#666666" stop-opacity="0"/>
</linearGradient>
<linearGradient id="paint7_linear_0_4" x1="193.217" y1="-19.1805" x2="193.217" y2="87.487" gradientUnits="userSpaceOnUse">
<stop offset="0.326923" stop-color="#02A145" stop-opacity="0.8"/>
<stop offset="1" stop-color="#666666" stop-opacity="0"/>
</linearGradient>
</defs>
</svg>
